<svg xmlns="http://www.w3.org/2000/svg" version="1.1" xmlns:xlink="http://www.w3.org/1999/xlink" xmlns:svgjs="http://svgjs.com/svgjs" width="512" height="512" x="0" y="0" viewBox="0 0 20.001 19.984" style="enable-background:new 0 0 512 512" xml:space="preserve" class=""><g><linearGradient id="a" x1="2.007" x2="21.95" y1="292.786" y2="312.597" gradientUnits="userSpaceOnUse"><stop stop-opacity="1" stop-color="#6f67ff" offset="0"></stop><stop stop-opacity="1" stop-color="#5f2069" offset="1"></stop></linearGradient><g fill="url(#a)" stroke-linecap="round" transform="translate(-2.006 -292.774)"><path d="M5.506 292.701a3.513 3.513 0 0 0-3.5 3.498v12.951c0 1.922 1.578 3.5 3.5 3.5H18.5c1.922 0 3.5-1.578 3.5-3.5v-9.5a1 1 0 0 0-1-1 1 1 0 0 0-1 1v9.5c0 .849-.652 1.5-1.5 1.5H5.506c-.849 0-1.5-.651-1.5-1.5V296.2c0-.85.651-1.5 1.5-1.5h9.45a1 1 0 0 0 1-1 1 1 0 0 0-1-.999z" fill=""></path><path d="m20.26 292.934-9.133 8.867a1 1 0 0 0 1.393 1.433l9.132-8.867a1 1 0 0 0 .022-1.414c-.505-.433-1.124-.302-1.414-.02z" fill=""></path></g></g></svg>